<?xml version="1.0" encoding="utf-8"?>
<!-- Generator: Adobe Illustrator 21.1.0, SVG Export Plug-In . SVG Version: 6.00 Build 0)  -->
<svg version="1.1" xmlns="http://www.w3.org/2000/svg" xmlns:xlink="http://www.w3.org/1999/xlink" x="0px" y="0px" width="1440px"
	 height="800px" viewBox="0 0 1440 800" style="enable-background:new 0 0 1440 800;" xml:space="preserve">
<style type="text/css">
	.st0{fill:#0042B4;}
	.st1{opacity:0.5;fill:#002899;}
	.st2{opacity:0.4;fill:#002079;enable-background:new    ;}
	.st3{opacity:0.8;fill:#0042B4;}
	.st4{opacity:0.6;fill:#001A6B;}
	.st5{opacity:0.6;fill:#0031AA;enable-background:new    ;}
	.st6{opacity:0.5;}
	.st7{opacity:0.5;fill:#001A87;enable-background:new    ;}
</style>
<g id="wave_1">
	<path class="st0" d="M1370.3-182.6C1266.9-68.3,1137.6,49.5,938.2,19.7C713.4-13.8,523.4-126.7,308.9-176.4
		C44.3-223.7-119.5-7.6-133,165.8c0,0-92.4,416.6,212.7,598.7c254,151.6,913.4,346.3,1353.8,165.9
		c146.8-60.1,133.2-686.2,87.5-1015.2C1502.5-218.3,1401.5-217.1,1370.3-182.6z"/>
</g>
<g id="wave_2">
	<path class="st1" d="M-152.8,139.4C13.7,87.4,256,100.5,578,267.6c274.7,142.6,278.9,20,620.9-61.4
		c467.6-111.3,534,417.6,429,555.7c-447,414-1490.7,140.5-1707.2,12S-397.3,215.8-152.8,139.4z"/>
</g>
<g id="wave_3">
	<path class="st2" d="M-132.3,346.9c84.6-94.2,379.7-122,662.4,24.7c168.4,87.4,171,12.3,380.6-37.6
		c286.6-68.2,657.8,200.7,544.3,333c-375.6,314.4-1222.2,78.8-1354.9,0S-217.6,441.9-132.3,346.9z"/>
</g>
<g id="wave_4">
	<path class="st3" d="M1580.2,567.2c-154.7,14.8-324.7,161.1-620.8,268.6C565,979,307.4,476.2,26.2,564.6
		c-94.4,29.7-131.7,308.3-131.7,308.3l1669.6,20.8C1564.1,893.7,1599.4,565.4,1580.2,567.2z"/>
</g>
<g id="wave_5">
	<path class="st4" d="M71.8,503.1c904.1,163.5,1250.9-4.6,1376.7-194.5c57.2-86.3,42.9-293.4,5.4-292.5
		c-183.5,4.7-736.8,368.2-1038.6,266.8C225.7,219.2,83.7,97.3-37.8,15.7c-59.4-39.9-77.7,423.1,17.5,465.9
		C8.5,494.6,38,497,71.8,503.1z"/>
</g>
<g id="wave_6">
	<path class="st5" d="M82.4-30.5c-77,78.4-151.8,162.8-219.2,246c-245.4,303,24.5,414.4,120.5,366.4
		c250.3-125.2,325.8-213.2,538-242.1c328.1-44.8,606.7,215.4,937.3,314.1c120.9,36.1,186.9-669,45.6-697.3
		C1100.5-124.6,188.6-138.7,82.4-30.5z"/>
</g>
<g id="wave_7" class="st6">
	<path class="st0" d="M-61.3,491.8C283.2,648.9,714.1,636,991.3,182.1c54.1-88.6,105.6-191.4,126.6-248.3
		c5.7-15.5-866.1-8.1-1185.1-9.9C-138-76.5-89.4,479-61.3,491.8z"/>
</g>
<g id="wave_8">
	<path class="st7" d="M1327.5-88.5c-1315-237.8-1451,225.9-1443,438S620.5,9.7,983.9,131.8c227.8,76.6,360,221,500,291
		C1639.9,500.8,1843.9,8.8,1327.5-88.5z"/>
</g>
</svg>
